<svg data-v-fde0c5aa="" xmlns="http://www.w3.org/2000/svg" viewBox="0 0 300 300" class="icon"><!----><defs data-v-fde0c5aa=""><!----></defs><rect data-v-fde0c5aa="" fill="#FF3435" x="0" y="0" width="300px" height="300px" class="logo-background-square"></rect><!----><defs data-v-fde0c5aa=""><!----></defs><g data-v-fde0c5aa="" id="0fddf1b2-00cf-44b5-b220-5aebc4a8d093" fill="#F7F9FD" stroke="none" transform="matrix(2.5190070954698154,0,0,2.5190070954698154,24.049646427665415,24.04965603691489)"><path d="M90.668 43.109a3 3 0 0 0 0-6h-7.053v-3.892h7.053a3 3 0 0 0 0-6h-7.256a13.066 13.066 0 0 0-10.629-10.629V9.332a3 3 0 1 0-6 0v7.053h-3.892V9.332a3 3 0 1 0-6 0v7.053H53V9.332a3 3 0 1 0-6 0v7.053h-3.891V9.332a3 3 0 0 0-6 0v7.053h-3.892V9.332a3 3 0 0 0-6 0v7.256a13.066 13.066 0 0 0-10.629 10.629H9.332a3 3 0 1 0 0 6h7.053v3.892H9.332a3 3 0 1 0 0 6h7.053V47H9.332a3 3 0 1 0 0 6h7.053v3.891H9.332a3 3 0 0 0 0 6h7.053v3.892H9.332a3 3 0 0 0 0 6h7.256a13.066 13.066 0 0 0 10.629 10.629v7.256a3 3 0 1 0 6 0v-7.053h3.892v7.053a3 3 0 1 0 6 0v-7.053H47v7.053a3 3 0 1 0 6 0v-7.053h3.891v7.053a3 3 0 0 0 6 0v-7.053h3.892v7.053a3 3 0 0 0 6 0v-7.256a13.066 13.066 0 0 0 10.629-10.629h7.256a3 3 0 1 0 0-6h-7.053v-3.892h7.053a3 3 0 1 0 0-6h-7.053V53h7.053a3 3 0 1 0 0-6h-7.053v-3.891h7.053zM70.563 78.504h-.192a3.008 3.008 0 0 0-1.175 0h-8.717a3.001 3.001 0 0 0-1.175 0h-8.716a3.009 3.009 0 0 0-1.175 0h-8.717a3.007 3.007 0 0 0-1.175 0h-8.716a3.01 3.01 0 0 0-1.176 0h-.192c-4.379 0-7.941-3.562-7.941-7.94v-.194c.037-.19.059-.386.059-.587s-.022-.397-.06-.587v-8.717c.038-.19.06-.386.06-.588s-.022-.397-.06-.587v-8.717c.038-.19.06-.386.06-.587s-.022-.397-.06-.587v-8.717c.038-.19.06-.386.06-.587s-.022-.398-.06-.588v-8.717c.038-.19.06-.386.06-.587s-.022-.397-.06-.587v-.193c0-4.379 3.563-7.941 7.942-7.941h.193c.19.037.386.059.587.059s.397-.022.587-.06h8.717c.19.038.386.06.588.06s.397-.022.587-.06h8.717c.19.038.386.06.587.06s.397-.022.587-.06h8.717c.19.038.386.06.587.06s.398-.022.588-.06h8.717c.19.038.386.06.587.06s.397-.022.587-.06h.193c4.379 0 7.941 3.563 7.941 7.942v.193c-.037.19-.059.386-.059.587s.022.397.06.587v8.717c-.038.19-.06.386-.06.588s.022.397.06.587v8.717c-.038.19-.06.386-.06.587s.022.397.06.587v8.717c-.038.19-.06.386-.06.587s.022.398.06.588v8.717c-.038.19-.06.386-.06.587s.022.397.06.587v.193c0 4.379-3.563 7.941-7.942 7.941z"></path><path d="M70.563 24.903H29.437a4.548 4.548 0 0 0-4.534 4.534v41.126a4.548 4.548 0 0 0 4.534 4.534h41.126a4.548 4.548 0 0 0 4.534-4.534V29.437a4.548 4.548 0 0 0-4.534-4.534zM56.817 62.89c-1.073.633-2.367 1.07-3.763 1.329v1.772a2.25 2.25 0 0 1-2.243 2.242h-1.166a2.25 2.25 0 0 1-2.242-2.242v-1.704c-2.447-.338-4.765-1.13-6.395-2.399-1.68-1.306-2.023-2.706-1.049-4.285.847-1.372 2.195-1.74 3.641-1.012 1.164.588 2.315 1.212 3.517 1.717 1.464.612 3.002.7 4.56.352 1.235-.274 2.197-1.129 2.313-2.07.13-1.059-.322-1.881-1.64-2.463-1.757-.774-3.6-1.352-5.361-2.12-1.505-.657-3.08-1.273-4.39-2.229-4.428-3.235-3.756-10.144 1.137-12.646 1.17-.599 2.397-.945 3.673-1.139v-1.986a2.25 2.25 0 0 1 2.242-2.242h1.166a2.25 2.25 0 0 1 2.243 2.242v2.02a14.85 14.85 0 0 1 3.797 1.12c.92.419 1.782 1.033 2.554 1.695.878.752.964 1.788.542 2.842-.434 1.085-1.14 2.025-2.38 1.969-.882-.04-1.789-.438-2.605-.836-1.824-.892-3.698-1.517-5.749-1.343-.638.054-1.316.192-1.876.482-1.623.839-1.677 2.747-.062 3.59 1.332.693 2.794 1.135 4.179 1.738 2.008.872 4.116 1.594 5.973 2.724 4.379 2.67 4.203 10.038-.616 12.882z"></path></g><!----></svg>