<?xml version="1.0" encoding="utf-8"?>
<!-- Generator: Adobe Illustrator 23.0.1, SVG Export Plug-In . SVG Version: 6.00 Build 0)  -->
<svg version="1.1" id="Layer_1" xmlns="http://www.w3.org/2000/svg" xmlns:xlink="http://www.w3.org/1999/xlink" x="0px" y="0px"
	 viewBox="0 0 300 300" style="enable-background:new 0 0 300 300;" xml:space="preserve">
<style type="text/css">
	.st0{fill:#F7F9FD;}
</style>
<g transform="matrix(2.5190070954698154,0,0,2.5190070954698154,24.049646427665415,24.04965603691489)">
	<path class="st0" d="M90.7,43.1c1.7,0,3-1.3,3-3s-1.3-3-3-3h-7.1v-3.9h7.1c1.7,0,3-1.3,3-3s-1.3-3-3-3h-7.3
		c-0.9-5.4-5.2-9.7-10.6-10.6V9.3c0-1.7-1.3-3-3-3s-3,1.3-3,3v7.1h-3.9V9.3c0-1.7-1.3-3-3-3s-3,1.3-3,3v7.1H53V9.3c0-1.7-1.3-3-3-3
		s-3,1.3-3,3v7.1h-3.9V9.3c0-1.7-1.3-3-3-3s-3,1.3-3,3v7.1h-3.9V9.3c0-1.7-1.3-3-3-3s-3,1.3-3,3v7.3c-5.4,0.9-9.7,5.2-10.6,10.6H9.3
		c-1.7,0-3,1.3-3,3s1.3,3,3,3h7.1v3.9H9.3c-1.7,0-3,1.3-3,3s1.3,3,3,3h7.1V47H9.3c-1.7,0-3,1.3-3,3s1.3,3,3,3h7.1v3.9H9.3
		c-1.7,0-3,1.3-3,3s1.3,3,3,3h7.1v3.9H9.3c-1.7,0-3,1.3-3,3s1.3,3,3,3h7.3c0.9,5.4,5.2,9.7,10.6,10.6v7.3c0,1.7,1.3,3,3,3s3-1.3,3-3
		v-7.1h3.9v7.1c0,1.7,1.3,3,3,3s3-1.3,3-3v-7.1H47v7.1c0,1.7,1.3,3,3,3s3-1.3,3-3v-7.1h3.9v7.1c0,1.7,1.3,3,3,3s3-1.3,3-3v-7.1h3.9
		v7.1c0,1.7,1.3,3,3,3s3-1.3,3-3v-7.3c5.4-0.9,9.7-5.2,10.6-10.6h7.3c1.7,0,3-1.3,3-3s-1.3-3-3-3h-7.1v-3.9h7.1c1.7,0,3-1.3,3-3
		s-1.3-3-3-3h-7.1V53h7.1c1.7,0,3-1.3,3-3s-1.3-3-3-3h-7.1v-3.9H90.7L90.7,43.1z M70.6,78.5h-0.2c-0.4-0.1-0.8-0.1-1.2,0h-8.7
		c-0.4-0.1-0.8-0.1-1.2,0h-8.7c-0.4-0.1-0.8-0.1-1.2,0h-8.7c-0.4-0.1-0.8-0.1-1.2,0h-8.7c-0.4-0.1-0.8-0.1-1.2,0h-0.2
		c-4.4,0-7.9-3.6-7.9-7.9v-0.2c0-0.2,0.1-0.4,0.1-0.6s0-0.4-0.1-0.6v-8.7c0-0.2,0.1-0.4,0.1-0.6s0-0.4-0.1-0.6v-8.7
		c0-0.2,0.1-0.4,0.1-0.6s0-0.4-0.1-0.6v-8.7c0-0.2,0.1-0.4,0.1-0.6s0-0.4-0.1-0.6v-8.7c0-0.2,0.1-0.4,0.1-0.6s0-0.4-0.1-0.6v-0.2
		c0-4.4,3.6-7.9,7.9-7.9h0.2c0.2,0,0.4,0.1,0.6,0.1s0.4,0,0.6-0.1h8.7c0.2,0,0.4,0.1,0.6,0.1s0.4,0,0.6-0.1h8.7
		c0.2,0,0.4,0.1,0.6,0.1s0.4,0,0.6-0.1h8.7c0.2,0,0.4,0.1,0.6,0.1s0.4,0,0.6-0.1h8.7c0.2,0,0.4,0.1,0.6,0.1s0.4,0,0.6-0.1h0.2
		c4.4,0,7.9,3.6,7.9,7.9v0.2c0,0.2-0.1,0.4-0.1,0.6s0,0.4,0.1,0.6v8.7c0,0.2-0.1,0.4-0.1,0.6s0,0.4,0.1,0.6v8.7
		c0,0.2-0.1,0.4-0.1,0.6s0,0.4,0.1,0.6v8.7c0,0.2-0.1,0.4-0.1,0.6s0,0.4,0.1,0.6v8.7c0,0.2-0.1,0.4-0.1,0.6s0,0.4,0.1,0.6v0.2
		C78.5,74.9,74.9,78.5,70.6,78.5L70.6,78.5z"/>
	<path class="st0" d="M70.6,24.9H29.4c-2.5,0-4.5,2-4.5,4.5v41.1c0,2.5,2,4.5,4.5,4.5h41.1c2.5,0,4.5-2,4.5-4.5V29.4
		C75.1,26.9,73.1,24.9,70.6,24.9z M56.8,62.9c-1.1,0.6-2.4,1.1-3.8,1.3V66c0,1.2-1,2.2-2.2,2.2h-1.2c-1.2,0-2.2-1-2.2-2.2v-1.7
		c-2.4-0.3-4.8-1.1-6.4-2.4c-1.7-1.3-2-2.7-1-4.3c0.8-1.4,2.2-1.7,3.6-1c1.2,0.6,2.3,1.2,3.5,1.7c1.5,0.6,3,0.7,4.6,0.4
		c1.2-0.3,2.2-1.1,2.3-2.1c0.1-1.1-0.3-1.9-1.6-2.5c-1.8-0.8-3.6-1.4-5.4-2.1c-1.5-0.7-3.1-1.3-4.4-2.2c-4.4-3.2-3.8-10.1,1.1-12.6
		c1.2-0.6,2.4-0.9,3.7-1.1v-2c0-1.2,1-2.2,2.2-2.2h1.2c1.2,0,2.2,1,2.2,2.2v2c1.3,0.2,2.6,0.6,3.8,1.1c0.9,0.4,1.8,1,2.6,1.7
		c0.9,0.8,1,1.8,0.5,2.8c-0.4,1.1-1.1,2-2.4,2c-0.9,0-1.8-0.4-2.6-0.8c-1.8-0.9-3.7-1.5-5.7-1.3c-0.6,0.1-1.3,0.2-1.9,0.5
		c-1.6,0.8-1.7,2.7-0.1,3.6c1.3,0.7,2.8,1.1,4.2,1.7c2,0.9,4.1,1.6,6,2.7C61.8,52.7,61.6,60,56.8,62.9z"/>
</g>
</svg>
